<svg width="27" height="26" viewBox="0 0 27 26" fill="none" xmlns="http://www.w3.org/2000/svg">
<g clip-path="url(#clip0_74_115)">
<path d="M13.3604 1.625C7.08785 1.625 1.98535 6.3375 1.98535 12.1306C1.99116 13.8893 2.46691 15.6144 3.36335 17.1275L2.0081 23.2294C1.97071 23.3995 1.98118 23.5766 2.03835 23.7411C2.09552 23.9056 2.19717 24.0511 2.33199 24.1614C2.46682 24.2716 2.62956 24.3423 2.80215 24.3657C2.97474 24.3891 3.15043 24.3642 3.30973 24.2937L8.92735 21.7977C10.339 22.354 11.843 22.6388 13.3604 22.6371C19.6329 22.6371 24.7354 17.9246 24.7354 12.1314C24.7354 6.33831 19.6329 1.625 13.3604 1.625ZM17.0231 14.885H9.6976C9.44763 14.885 9.20791 14.7857 9.03115 14.6089C8.8544 14.4322 8.7551 14.1925 8.7551 13.9425C8.7551 13.6925 8.8544 13.4528 9.03115 13.2761C9.20791 13.0993 9.44763 13 9.6976 13H17.0231C17.2731 13 17.5128 13.0993 17.6895 13.2761C17.8663 13.4528 17.9656 13.6925 17.9656 13.9425C17.9656 14.1925 17.8663 14.4322 17.6895 14.6089C17.5128 14.7857 17.2731 14.885 17.0231 14.885ZM17.0231 11.1166H9.6976C9.45462 11.1065 9.22494 11.0029 9.05659 10.8274C8.88823 10.6519 8.79423 10.4181 8.79423 10.1749C8.79423 9.93174 8.88823 9.69797 9.05659 9.52247C9.22494 9.34697 9.45462 9.24335 9.6976 9.23325H17.0231C17.1501 9.22798 17.2768 9.24843 17.3956 9.29337C17.5145 9.33832 17.623 9.40683 17.7147 9.4948C17.8064 9.58276 17.8794 9.68836 17.9292 9.80524C17.979 9.92212 18.0047 10.0479 18.0047 10.1749C18.0047 10.302 17.979 10.4278 17.9292 10.5446C17.8794 10.6615 17.8064 10.7671 17.7147 10.8551C17.623 10.943 17.5145 11.0116 17.3956 11.0565C17.2768 11.1014 17.1501 11.1219 17.0231 11.1166Z" fill="white"/>
</g>
<defs>
<clipPath id="clip0_74_115">
<rect width="26" height="26" fill="white" transform="translate(0.360352)"/>
</clipPath>
</defs>
</svg>
